<svg xmlns="http://www.w3.org/2000/svg" viewBox="0 0 512 512">
  <rect width="512" height="512" fill="#0ea5e9" rx="64"/>
  <g fill="white">
    <path d="M256 96c-44.2 0-80 35.8-80 80s35.8 80 80 80 80-35.8 80-80-35.8-80-80-80zm0 128c-26.5 0-48-21.5-48-48s21.5-48 48-48 48 21.5 48 48-21.5 48-48 48z"/>
    <path d="M256 64c-70.7 0-128 57.3-128 128s57.3 128 128 128 128-57.3 128-128S326.7 64 256 64zm0 224c-53 0-96-43-96-96s43-96 96-96 96 43 96 96-43 96-96 96z"/>
    <ellipse cx="256" cy="144" rx="32" ry="16"/>
    <ellipse cx="256" cy="368" rx="48" ry="24"/>
  </g>
</svg>